<svg viewBox="0 0 24 24" xmlns="http://www.w3.org/2000/svg" fill-rule="evenodd" clip-rule="evenodd" stroke-linejoin="round" stroke-miterlimit="2">
    <path d="M12.685 2.694A.75.75 0 0012 2.25 9.75 9.75 0 002.25 12 9.75 9.75 0 0012 21.75 9.75 9.75 0 0021.75 12a.75.75 0 00-.75-.75c-1.789 0-3.407-1.353-4.747-2.908-2.164-2.51-3.568-5.648-3.568-5.648zm-1.153 1.069c.493 1.004 1.795 3.483 3.585 5.559 1.443 1.674 3.21 3.058 5.105 3.365a8.25 8.25 0 11-8.69-8.924z" fill="#323232"/>
    <circle cx="9.868" cy="12.868" r=".868" fill="#323232" transform="translate(1.46 -1.515) scale(1.05026)"/>
    <circle cx="9.868" cy="12.868" r=".868" fill="#323232" transform="translate(-2.357 .485) scale(1.05026)"/>
    <circle cx="9.868" cy="12.868" r=".868" fill="#323232" transform="translate(-1.354 -5.515) scale(1.05026)"/>
    <circle cx="9.868" cy="12.868" r=".868" fill="#323232" transform="translate(2.636 2.485) scale(1.05026)"/>
</svg>
