<svg viewBox="0 0 24 24" xmlns="http://www.w3.org/2000/svg" fill-rule="evenodd" clip-rule="evenodd" stroke-linejoin="round" stroke-miterlimit="2">
    <path d="M14.789 9.812l-3.618 3.617-1.959-1.958a.749.749 0 10-1.06 1.06l2.489 2.489a.749.749 0 001.06 0l4.148-4.148a.749.749 0 10-1.06-1.06z" fill="#323232"/>
    <path d="M19.159 5.173a10.522 10.522 0 01-6.034-2.509v-.001a1.748 1.748 0 00-2.251.001 10.523 10.523 0 01-6.033 2.509A1.74 1.74 0 003.25 6.912v4.33c0 4.69 3.382 9.093 8.024 10.407.471.133.982.133 1.453 0 4.641-1.315 8.023-5.716 8.023-10.406v-4.33a1.74 1.74 0 00-1.592-1.74h.001zm-.118 1.496h.001c.122.009.208.121.208.244v4.33c0 4.044-2.93 7.829-6.931 8.962-.207.059-.43.059-.637 0-4.002-1.132-6.932-4.919-6.932-8.963v-4.33c0-.123.086-.234.208-.243h.001a12.021 12.021 0 006.892-2.867h.001a.23.23 0 01.297.001 12.02 12.02 0 006.892 2.866z" fill="#323232"/>
</svg>
