<svg viewBox="0 0 24 24" xmlns="http://www.w3.org/2000/svg" fill-rule="evenodd" clip-rule="evenodd" stroke-linejoin="round" stroke-miterlimit="2">
    <path d="M15.7 3.25A5.44 5.44 0 0012 4.643 5.44 5.44 0 008.3 3.25c-3.599 0-6.05 3.354-6.05 6.51 0 1.495.549 2.929 1.408 4.239 1.215 1.853 3.05 3.456 4.665 4.625 1.614 1.169 3.005 1.904 3.316 2.041.192.085.324.085.361.085.037 0 .169 0 .361-.085.311-.137 1.702-.872 3.316-2.041 1.615-1.169 3.45-2.772 4.665-4.625.859-1.31 1.408-2.744 1.408-4.239 0-3.156-2.451-6.51-6.05-6.51zM12 19.162a27.698 27.698 0 01-2.797-1.753c-1.482-1.072-3.176-2.533-4.29-4.232-.694-1.059-1.163-2.209-1.163-3.417 0-2.404 1.809-5.01 4.55-5.01 1.541 0 2.548.772 3.132 1.45a.752.752 0 001.136 0c.584-.678 1.591-1.45 3.132-1.45 2.741 0 4.55 2.606 4.55 5.01 0 1.208-.469 2.358-1.163 3.417-1.114 1.699-2.808 3.16-4.29 4.232A27.698 27.698 0 0112 19.162z" fill="#323232"/>
</svg>
