<svg viewBox="0 0 24 24" xmlns="http://www.w3.org/2000/svg" fill-rule="evenodd" clip-rule="evenodd" stroke-linejoin="round" stroke-miterlimit="2">
    <path d="M2.75 19A3.25 3.25 0 016 15.75h4A3.25 3.25 0 0113.25 19a.75.75 0 001.5 0A4.75 4.75 0 0010 14.25H6A4.75 4.75 0 001.25 19a.75.75 0 001.5 0zm8.255-13.505a4.249 4.249 0 10-6.01 6.01 4.249 4.249 0 106.01-6.01zm-1.06 1.06a2.753 2.753 0 00-3.89 0 2.753 2.753 0 000 3.89 2.751 2.751 0 003.89-3.89zM16 14.75h3A2.25 2.25 0 0121.25 17a.75.75 0 001.5 0A3.75 3.75 0 0019 13.25h-3a.75.75 0 000 1.5zm3.798-8.548a3.25 3.25 0 10-4.596 4.597 3.25 3.25 0 004.596-4.597zm-1.061 1.061a1.748 1.748 0 00-2.474 0 1.748 1.748 0 000 2.474 1.748 1.748 0 002.474 0 1.748 1.748 0 000-2.474z" fill="#323232"/>
</svg>
