<svg viewBox="0 0 24 24" xmlns="http://www.w3.org/2000/svg" fill-rule="evenodd" clip-rule="evenodd" stroke-linejoin="round" stroke-miterlimit="2">
    <path d="M5.377 15.463l1.455 3.671a2.547 2.547 0 002.367 1.616c1.797 0 3.033-1.825 2.37-3.511l-.586-1.49 2.783.001 3.682 2.516c1.824 1.248 4.302-.059 4.302-2.27V5.004c0-2.211-2.476-3.518-4.302-2.271l-3.681 2.515H7.001A4.75 4.75 0 002.25 9.999v.997a4.753 4.753 0 003.127 4.467zm1.726.285l1.123 2.834c.16.402.544.668.973.668.745 0 1.249-.763.974-1.463l-.802-2.038-2.268-.001zm7.647-1.142V6.393l3.544-2.422a1.25 1.25 0 011.956 1.033v10.992c0 1.005-1.126 1.6-1.955 1.032l-3.545-2.422zm-1.5-7.858v7.502L7 14.248a3.251 3.251 0 01-3.25-3.252v-.997a3.25 3.25 0 013.251-3.251h6.249z" fill="#323232"/>
</svg>
