<svg viewBox="0 0 24 24" xmlns="http://www.w3.org/2000/svg" fill-rule="evenodd" clip-rule="evenodd" stroke-linejoin="round" stroke-miterlimit="2">
    <path d="M19 19.731a2.75 2.75 0 002.75-2.749V7.019A2.75 2.75 0 0019 4.269H5a2.75 2.75 0 00-2.75 2.75v9.962A2.75 2.75 0 005 19.731h14zm0-1.5H5a1.25 1.25 0 01-1.25-1.25V7.019c0-.691.559-1.25 1.25-1.25h14c.691 0 1.25.559 1.25 1.25v9.963c0 .69-.559 1.249-1.25 1.249z" fill="#323232"/>
    <path d="M16.614 8.357L12 11.125 7.386 8.357a.75.75 0 00-.772 1.286l5 3a.748.748 0 00.772 0l5-3a.75.75 0 00-.772-1.286z" fill="#323232"/>
</svg>
