<svg viewBox="0 0 24 24" xmlns="http://www.w3.org/2000/svg" fill-rule="evenodd" clip-rule="evenodd" stroke-linejoin="round" stroke-miterlimit="2">
    <path d="M18.786 9.847l1.684 1.683a.749.749 0 101.06-1.06l-1.683-1.684A4.752 4.752 0 0016 1.25 4.752 4.752 0 0011.25 6a4.752 4.752 0 007.536 3.847zM16 2.75a3.251 3.251 0 010 6.5 3.251 3.251 0 010-6.5z" fill="#323232"/>
    <path d="M9 3.25H6A3.768 3.768 0 002.25 7v11A3.768 3.768 0 006 21.75h12A3.768 3.768 0 0021.75 18v-3a.75.75 0 00-1.5 0v3A2.261 2.261 0 0118 20.25H6A2.261 2.261 0 013.75 18V7A2.261 2.261 0 016 4.75h3a.75.75 0 000-1.5z" fill="#323232"/>
    <path d="M7 9.75h2a.75.75 0 000-1.5H7a.75.75 0 000 1.5zm5 2.5H7a.75.75 0 000 1.5h5a.75.75 0 000-1.5zm5 0h-2a.75.75 0 000 1.5h2a.75.75 0 000-1.5zm0 4h-5a.75.75 0 000 1.5h5a.75.75 0 000-1.5zm-8 0H7a.75.75 0 000 1.5h2a.75.75 0 000-1.5z" fill="#323232"/>
</svg>
