<svg viewBox="0 0 24 24" xmlns="http://www.w3.org/2000/svg" fill-rule="evenodd" clip-rule="evenodd" stroke-linejoin="round" stroke-miterlimit="2">
    <path d="M12.278 2.597a.63.63 0 01-.554 0l-1.451-.709a2.132 2.132 0 00-2.819.917L6.698 4.23a.633.633 0 01-.449.326l-1.59.279a2.13 2.13 0 00-1.742 2.398l.225 1.597v.001a.63.63 0 01-.171.527l-1.122 1.16a2.131 2.131 0 000 2.964l1.122 1.159a.63.63 0 01.171.527l-.226 1.599a2.132 2.132 0 001.742 2.398l1.59.279a.636.636 0 01.45.326l.756 1.426a2.132 2.132 0 002.819.917l1.45-.709a.63.63 0 01.555 0l1.45.709a2.132 2.132 0 002.819-.917l.756-1.425a.636.636 0 01.45-.326l1.59-.279a2.132 2.132 0 001.742-2.398l-.226-1.599a.63.63 0 01.171-.527l1.122-1.16c.8-.827.799-2.138 0-2.964L21.03 9.359a.63.63 0 01-.171-.527l.226-1.599a2.132 2.132 0 00-1.742-2.398l-1.59-.279a.636.636 0 01-.45-.326l-.757-1.426a2.13 2.13 0 00-2.818-.916l-1.45.709zm.658 1.348l1.45-.709a.63.63 0 01.835.271l.758 1.427c.308.58.866.986 1.514 1.1l1.59.279a.63.63 0 01.516.71l-.226 1.598a2.13 2.13 0 00.579 1.78l1.122 1.161a.632.632 0 010 .878l-1.122 1.16a2.132 2.132 0 00-.579 1.781l.226 1.597a.63.63 0 01-.516.71l-1.59.279a2.132 2.132 0 00-1.514 1.1l-.758 1.427a.631.631 0 01-.835.271l-1.45-.709a2.134 2.134 0 00-1.871 0l-1.45.709a.63.63 0 01-.835-.271l-.758-1.428a2.132 2.132 0 00-1.514-1.1l-1.59-.279a.63.63 0 01-.516-.71l.226-1.598a2.13 2.13 0 00-.579-1.78l-1.122-1.161a.632.632 0 010-.878l1.122-1.16a2.132 2.132 0 00.579-1.781l-.225-1.597v-.001a.629.629 0 01.515-.708l1.591-.279a2.135 2.135 0 001.513-1.1l.758-1.427a.631.631 0 01.835-.271l1.45.709a2.13 2.13 0 001.871 0z" fill="#323232"/>
    <path d="M9.53 15.53l6-6a.749.749 0 10-1.06-1.06l-6 6a.749.749 0 101.06 1.06zm-.229-7.279l-.052-.001-.039.001a.999.999 0 00.04 1.999 1 1 0 00.051-1.999zm5.5 5.5l-.052-.001-.039.001a.999.999 0 00.04 1.999 1 1 0 00.051-1.999z" fill="#323232"/>
</svg>
