<svg viewBox="0 0 24 24" xmlns="http://www.w3.org/2000/svg" fill-rule="evenodd" clip-rule="evenodd" stroke-linejoin="round" stroke-miterlimit="2">
    <path d="M11.25 3.505A8.494 8.494 0 005.97 5.97a8.494 8.494 0 00-2.465 5.28H2a.75.75 0 000 1.5h1.505a8.494 8.494 0 002.465 5.28 8.494 8.494 0 005.28 2.465V22a.75.75 0 001.5 0v-1.505a8.494 8.494 0 005.28-2.465 8.494 8.494 0 002.465-5.28H22a.75.75 0 000-1.5h-1.505a8.494 8.494 0 00-2.465-5.28 8.494 8.494 0 00-5.28-2.465V2a.75.75 0 00-1.5 0v1.505zm1.5 1.507v1.432a.75.75 0 01-1.5 0V5.012a6.99 6.99 0 00-4.219 2.019 6.99 6.99 0 00-2.019 4.219h1.432a.75.75 0 010 1.5H5.012a6.99 6.99 0 002.019 4.219 6.996 6.996 0 004.219 2.019v-1.432a.75.75 0 011.5 0v1.432a6.996 6.996 0 004.219-2.019 6.996 6.996 0 002.019-4.219h-1.432a.75.75 0 010-1.5h1.432a6.996 6.996 0 00-2.019-4.219l-.064-.064a6.994 6.994 0 00-4.155-1.955z" fill="#323232"/>
</svg>
