<svg viewBox="0 0 24 24" xmlns="http://www.w3.org/2000/svg" fill-rule="evenodd" clip-rule="evenodd" stroke-linejoin="round" stroke-miterlimit="2">
    <path d="M3.787 16.388l1.398.214a1.251 1.251 0 011.058 1.327L6.14 19.34a1.752 1.752 0 00.987 1.707l1.035.499a1.756 1.756 0 001.95-.291l1.04-.961a1.25 1.25 0 011.697 0l1.039.96a1.751 1.751 0 001.951.292l1.036-.499a1.748 1.748 0 00.986-1.705l-.103-1.413a1.251 1.251 0 011.058-1.327l1.398-.214a1.753 1.753 0 001.445-1.343l.255-1.118a1.752 1.752 0 00-.719-1.838l-1.166-.798a1.25 1.25 0 01-.378-1.654l.705-1.227a1.753 1.753 0 00-.15-1.967l-.715-.897a1.756 1.756 0 00-1.885-.583l-1.352.414a1.253 1.253 0 01-1.531-.737l-.518-1.313a1.752 1.752 0 00-1.635-1.109l-1.146.003a1.754 1.754 0 00-1.63 1.118l-.505 1.298a1.249 1.249 0 01-1.533.741l-1.408-.432a1.754 1.754 0 00-1.89.587l-.71.899a1.753 1.753 0 00-.138 1.974l.721 1.229a1.25 1.25 0 01-.372 1.664l-1.153.79a1.755 1.755 0 00-.718 1.838l.255 1.117a1.75 1.75 0 001.444 1.344zm1.625-1.268l-1.399-.214a.252.252 0 01-.207-.194l-.256-1.121a.251.251 0 01.104-.264l1.153-.79a2.752 2.752 0 00.818-3.66l-.721-1.229a.254.254 0 01.02-.286l.71-.897a.253.253 0 01.273-.085l1.409.432a2.75 2.75 0 003.371-1.631l.505-1.298a.254.254 0 01.236-.162l1.146-.003c.104 0 .198.064.237.161l.518 1.313a2.75 2.75 0 003.365 1.619l1.352-.414c.1-.031.208.003.273.085l.715.897a.254.254 0 01.022.284l-.705 1.226a2.75 2.75 0 00.83 3.64l1.168.8a.25.25 0 01.103.264l-.255 1.118a.255.255 0 01-.209.195l-1.399.214a2.75 2.75 0 00-2.327 2.919l.103 1.413a.25.25 0 01-.14.243l-1.036.499a.255.255 0 01-.283-.042l-1.039-.96a2.75 2.75 0 00-3.733 0l-1.038.959a.255.255 0 01-.283.044l-1.034-.498a.253.253 0 01-.143-.247l.103-1.411a2.75 2.75 0 00-2.327-2.919z" fill="#323232"/>
    <path d="M12.083 8.542L12 8.541a3.459 3.459 0 102.446 1.013l-.064-.063a3.443 3.443 0 00-2.299-.949zm1.303 2.072a1.96 1.96 0 10-2.772 2.774 1.96 1.96 0 002.772-2.774z" fill="#323232"/>
</svg>
