<svg viewBox="0 0 24 24" xmlns="http://www.w3.org/2000/svg" fill-rule="evenodd" clip-rule="evenodd" stroke-linejoin="round" stroke-miterlimit="2">
    <path d="M7.25 9.25H7A2.75 2.75 0 004.25 12v7A2.75 2.75 0 007 21.75h10l.071-.001A2.75 2.75 0 0019.75 19v-7A2.75 2.75 0 0017 9.25h-.25V7a4.75 4.75 0 00-9.5 0v2.25zm8.75 1.5h1c.69 0 1.25.56 1.25 1.25v7c0 .69-.56 1.25-1.25 1.25H7c-.69 0-1.25-.56-1.25-1.25v-7c0-.69.56-1.25 1.25-1.25h9zm-2.53 3.131l-1.781 1.779-.86-.856a.749.749 0 10-1.058 1.062l1.39 1.385a.749.749 0 001.059-.001l2.31-2.309a.749.749 0 10-1.06-1.06zm1.78-4.631V7a3.25 3.25 0 10-6.5 0v2.25h6.5z" fill="#323232"/>
</svg>
