<svg viewBox="0 0 24 24" xmlns="http://www.w3.org/2000/svg" fill-rule="evenodd" clip-rule="evenodd" stroke-linejoin="round" stroke-miterlimit="2">
    <path d="M12.75 13.12V9.38a.75.75 0 00-1.5 0v3.74a.75.75 0 001.5 0zm-.699 2.256l-.052-.001-.039.001a.999.999 0 00.04 1.999 1 1 0 00.051-1.999zm-.078 1.498a.226.226 0 00.026.001l-.026-.001z" fill="#323232"/>
    <path d="M14.68 3.767c-1.185-2.075-4.175-2.075-5.36 0L1.661 17.171c-1.177 2.058.309 4.619 2.68 4.619h15.318c2.37 0 3.856-2.561 2.68-4.619L14.68 3.767zm-1.302.744l7.659 13.404a1.588 1.588 0 01-1.378 2.375H4.341a1.587 1.587 0 01-1.378-2.375l7.659-13.404a1.587 1.587 0 012.756 0z" fill="#323232"/>
</svg>
