<?xml version="1.0" encoding="UTF-8" standalone="no"?>
<!DOCTYPE svg PUBLIC "-//W3C//DTD SVG 1.1//EN" "http://www.w3.org/Graphics/SVG/1.1/DTD/svg11.dtd">
<svg width="100%" height="100%" viewBox="0 0 24 24" version="1.1" xmlns="http://www.w3.org/2000/svg" xmlns:xlink="http://www.w3.org/1999/xlink" xml:space="preserve" xmlns:serif="http://www.serif.com/" style="fill-rule:evenodd;clip-rule:evenodd;stroke-linejoin:round;stroke-miterlimit:2;">
    <path d="M2.75,19C2.75,17.205 4.205,15.75 6,15.75C6,15.75 10,15.75 10,15.75C11.795,15.75 13.25,17.205 13.25,19C13.25,19.414 13.586,19.75 14,19.75C14.414,19.75 14.75,19.414 14.75,19C14.75,16.377 12.623,14.25 10,14.25L6,14.25C3.377,14.25 1.25,16.377 1.25,19C1.25,19.414 1.586,19.75 2,19.75C2.414,19.75 2.75,19.414 2.75,19Z" style="fill:rgb(50,50,50);"/>
    <path d="M11.005,5.495C9.345,3.835 6.655,3.835 4.995,5.495C3.335,7.155 3.335,9.845 4.995,11.505C6.655,13.165 9.345,13.165 11.005,11.505C12.665,9.845 12.665,7.155 11.005,5.495ZM9.945,6.555C8.871,5.482 7.129,5.482 6.055,6.555C4.982,7.629 4.982,9.371 6.055,10.445C7.129,11.518 8.871,11.518 9.945,10.445C11.019,9.371 11.019,7.629 9.945,6.555Z" style="fill:rgb(50,50,50);"/>
    <path d="M16,14.75L19,14.75C20.243,14.75 21.25,15.757 21.25,17C21.25,17.414 21.586,17.75 22,17.75C22.414,17.75 22.75,17.414 22.75,17C22.75,14.929 21.071,13.25 19,13.25L16,13.25C15.586,13.25 15.25,13.586 15.25,14C15.25,14.414 15.586,14.75 16,14.75Z" style="fill:rgb(50,50,50);"/>
    <path d="M19.798,6.202C18.529,4.933 16.471,4.933 15.202,6.202C13.933,7.471 13.933,9.529 15.202,10.798C16.471,12.067 18.529,12.067 19.798,10.798C21.067,9.529 21.067,7.471 19.798,6.202ZM18.737,7.263C18.054,6.579 16.946,6.579 16.263,7.263C15.579,7.946 15.579,9.054 16.263,9.737C16.946,10.421 18.054,10.421 18.737,9.737C19.421,9.054 19.421,7.946 18.737,7.263Z" style="fill:rgb(50,50,50);"/>
</svg>
