<?xml version="1.0" encoding="UTF-8" standalone="no"?>
<!DOCTYPE svg PUBLIC "-//W3C//DTD SVG 1.1//EN" "http://www.w3.org/Graphics/SVG/1.1/DTD/svg11.dtd">
<svg width="100%" height="100%" viewBox="0 0 24 24" version="1.1" xmlns="http://www.w3.org/2000/svg" xmlns:xlink="http://www.w3.org/1999/xlink" xml:space="preserve" xmlns:serif="http://www.serif.com/" style="fill-rule:evenodd;clip-rule:evenodd;stroke-linejoin:round;stroke-miterlimit:2;">
    <path d="M3.787,16.388L5.185,16.602C5.83,16.701 6.29,17.279 6.243,17.929L6.14,19.34C6.088,20.059 6.479,20.735 7.127,21.047L8.162,21.546C8.809,21.858 9.583,21.742 10.112,21.255L11.152,20.294C11.631,19.851 12.37,19.852 12.849,20.294C12.849,20.294 13.888,21.254 13.888,21.254C14.417,21.743 15.189,21.859 15.839,21.546L16.875,21.047C17.523,20.735 17.914,20.06 17.861,19.342L17.758,17.929C17.711,17.279 18.171,16.701 18.816,16.602C18.816,16.602 20.214,16.388 20.214,16.388C20.925,16.28 21.498,15.748 21.659,15.045L21.914,13.927C22.075,13.224 21.789,12.495 21.195,12.089C21.196,12.09 20.029,11.291 20.029,11.291C19.491,10.922 19.326,10.202 19.651,9.637L20.356,8.41C20.715,7.787 20.655,7.006 20.206,6.443L19.491,5.546C19.042,4.984 18.294,4.752 17.606,4.963L16.254,5.377C15.63,5.568 14.964,5.247 14.723,4.64L14.205,3.327C13.94,2.656 13.292,2.216 12.57,2.218L11.424,2.221C10.703,2.223 10.056,2.666 9.794,3.339L9.289,4.637C9.052,5.248 8.383,5.571 7.756,5.378L6.348,4.946C5.659,4.733 4.907,4.967 4.458,5.533L3.748,6.432C3.299,7 3.245,7.782 3.61,8.406L4.331,9.635C4.663,10.202 4.501,10.929 3.959,11.299L2.806,12.089C2.212,12.497 1.927,13.226 2.088,13.927C2.088,13.926 2.343,15.044 2.343,15.044C2.502,15.747 3.075,16.28 3.787,16.388L3.787,16.388ZM5.412,15.12L4.013,14.906C3.911,14.89 3.828,14.813 3.806,14.712L3.55,13.591C3.527,13.49 3.568,13.385 3.654,13.327C3.654,13.327 4.807,12.537 4.807,12.537C5.997,11.721 6.355,10.122 5.625,8.877L4.904,7.648C4.851,7.558 4.859,7.444 4.924,7.362L5.634,6.465C5.699,6.383 5.807,6.349 5.907,6.38L7.316,6.812C8.693,7.235 10.164,6.524 10.687,5.181C10.687,5.181 11.192,3.883 11.192,3.883C11.23,3.786 11.323,3.721 11.428,3.721L12.574,3.718C12.678,3.718 12.772,3.782 12.811,3.879L13.329,5.192C13.856,6.527 15.32,7.232 16.694,6.811L18.046,6.397C18.146,6.366 18.254,6.4 18.319,6.482L19.034,7.379C19.099,7.46 19.107,7.573 19.056,7.663L18.351,8.889C17.636,10.134 17.997,11.718 19.181,12.529L20.349,13.329C20.435,13.387 20.475,13.492 20.452,13.593L20.197,14.711C20.174,14.812 20.091,14.89 19.988,14.906L18.589,15.12C17.171,15.337 16.158,16.607 16.262,18.039L16.365,19.452C16.372,19.554 16.317,19.651 16.225,19.695L15.189,20.194C15.095,20.239 14.983,20.223 14.906,20.152L13.867,19.192C12.812,18.218 11.187,18.219 10.134,19.192C10.134,19.192 9.096,20.151 9.096,20.151C9.019,20.222 8.907,20.24 8.813,20.195L7.779,19.697C7.685,19.651 7.628,19.554 7.636,19.45C7.636,19.45 7.739,18.039 7.739,18.039C7.843,16.607 6.83,15.337 5.412,15.12Z" style="fill:rgb(50,50,50);"/>
    <path d="M12.083,8.542L12,8.541C11.115,8.541 10.229,8.878 9.554,9.554C8.203,10.905 8.203,13.095 9.554,14.446C10.905,15.797 13.095,15.797 14.446,14.446C15.797,13.095 15.797,10.905 14.446,9.554L14.382,9.491C13.737,8.878 12.913,8.561 12.083,8.542ZM13.386,10.614C12.621,9.849 11.379,9.849 10.614,10.614C9.849,11.379 9.849,12.621 10.614,13.386C11.379,14.151 12.621,14.151 13.386,13.386C14.151,12.621 14.151,11.379 13.386,10.614Z" style="fill:rgb(50,50,50);"/>
</svg>
