<?xml version="1.0" encoding="UTF-8" standalone="no"?>
<!DOCTYPE svg PUBLIC "-//W3C//DTD SVG 1.1//EN" "http://www.w3.org/Graphics/SVG/1.1/DTD/svg11.dtd">
<svg width="100%" height="100%" viewBox="0 0 24 24" version="1.1" xmlns="http://www.w3.org/2000/svg" xmlns:xlink="http://www.w3.org/1999/xlink" xml:space="preserve" xmlns:serif="http://www.serif.com/" style="fill-rule:evenodd;clip-rule:evenodd;stroke-linejoin:round;stroke-miterlimit:2;">
    <path d="M14.789,9.812L11.171,13.429C11.171,13.429 9.212,11.471 9.212,11.471C8.92,11.178 8.444,11.178 8.152,11.471C7.859,11.763 7.859,12.239 8.152,12.531L10.641,15.02C10.934,15.313 11.408,15.313 11.701,15.02L15.849,10.872C16.142,10.58 16.142,10.104 15.849,9.812C15.557,9.519 15.081,9.519 14.789,9.812Z" style="fill:rgb(50,50,50);"/>
    <path d="M19.159,5.173C16.863,4.992 14.774,4.078 13.125,2.664C13.125,2.664 13.125,2.663 13.125,2.663C12.485,2.116 11.512,2.116 10.874,2.664C9.226,4.077 7.137,4.992 4.841,5.173C3.94,5.244 3.25,6.009 3.25,6.912L3.25,11.242C3.25,15.932 6.632,20.335 11.274,21.649C11.745,21.782 12.256,21.782 12.727,21.649C12.727,21.649 12.727,21.649 12.727,21.649C17.368,20.334 20.75,15.933 20.75,11.243L20.75,6.913C20.75,6.008 20.06,5.244 19.158,5.173L19.159,5.173ZM19.041,6.669C19.041,6.669 19.041,6.669 19.042,6.669C19.164,6.678 19.25,6.79 19.25,6.913C19.25,6.913 19.25,11.243 19.25,11.243C19.25,15.287 16.32,19.072 12.319,20.205C12.112,20.264 11.889,20.264 11.682,20.205C11.682,20.205 11.682,20.205 11.682,20.205C7.68,19.073 4.75,15.286 4.75,11.242C4.75,11.242 4.75,6.912 4.75,6.912C4.75,6.789 4.836,6.678 4.958,6.669C4.959,6.669 4.959,6.669 4.959,6.669C7.581,6.462 9.968,5.417 11.851,3.802C11.851,3.802 11.851,3.802 11.852,3.802C11.936,3.73 12.065,3.73 12.149,3.803C14.032,5.418 16.419,6.462 19.041,6.669Z" style="fill:rgb(50,50,50);"/>
</svg>
