<?xml version="1.0" encoding="UTF-8" standalone="no"?>
<!DOCTYPE svg PUBLIC "-//W3C//DTD SVG 1.1//EN" "http://www.w3.org/Graphics/SVG/1.1/DTD/svg11.dtd">
<svg width="100%" height="100%" viewBox="0 0 24 24" version="1.1" xmlns="http://www.w3.org/2000/svg" xmlns:xlink="http://www.w3.org/1999/xlink" xml:space="preserve" xmlns:serif="http://www.serif.com/" style="fill-rule:evenodd;clip-rule:evenodd;stroke-linejoin:round;stroke-miterlimit:2;">
    <path d="M19,19.731C20.519,19.731 21.75,18.5 21.75,16.982L21.75,7.019C21.75,5.5 20.519,4.269 19,4.269L5,4.269C3.481,4.269 2.25,5.5 2.25,7.019L2.25,16.981C2.25,18.5 3.481,19.731 5,19.731C5,19.731 19,19.731 19,19.731ZM19,18.231L5,18.231C4.309,18.231 3.75,17.672 3.75,16.981C3.75,16.981 3.75,7.019 3.75,7.019C3.75,6.328 4.309,5.769 5,5.769C5,5.769 19,5.769 19,5.769C19.691,5.769 20.25,6.328 20.25,7.019C20.25,7.019 20.25,16.982 20.25,16.982C20.25,17.672 19.691,18.231 19,18.231Z" style="fill:rgb(50,50,50);"/>
    <path d="M16.614,8.357L12,11.125C12,11.125 7.386,8.357 7.386,8.357C7.031,8.144 6.57,8.259 6.357,8.614C6.144,8.969 6.259,9.43 6.614,9.643L11.614,12.643C11.852,12.786 12.148,12.786 12.386,12.643L17.386,9.643C17.741,9.43 17.856,8.969 17.643,8.614C17.43,8.259 16.969,8.144 16.614,8.357Z" style="fill:rgb(50,50,50);"/>
</svg>
