<?xml version="1.0" encoding="UTF-8" standalone="no"?>
<!DOCTYPE svg PUBLIC "-//W3C//DTD SVG 1.1//EN" "http://www.w3.org/Graphics/SVG/1.1/DTD/svg11.dtd">
<svg width="100%" height="100%" viewBox="0 0 24 24" version="1.1" xmlns="http://www.w3.org/2000/svg" xmlns:xlink="http://www.w3.org/1999/xlink" xml:space="preserve" xmlns:serif="http://www.serif.com/" style="fill-rule:evenodd;clip-rule:evenodd;stroke-linejoin:round;stroke-miterlimit:2;">
    <path d="M7.25,9.25L7,9.25C5.481,9.25 4.25,10.481 4.25,12C4.25,12 4.25,19 4.25,19C4.25,20.519 5.481,21.75 7,21.75L17,21.75L17.071,21.749C18.557,21.712 19.75,20.495 19.75,19C19.75,19 19.75,12 19.75,12C19.75,10.481 18.519,9.25 17,9.25L16.75,9.25L16.75,7C16.75,4.377 14.623,2.25 12,2.25C9.377,2.25 7.25,4.377 7.25,7L7.25,9.25ZM16,10.75L17,10.75C17.69,10.75 18.25,11.31 18.25,12L18.25,19C18.25,19.69 17.69,20.25 17,20.25L7,20.25C6.31,20.25 5.75,19.69 5.75,19L5.75,12C5.75,11.31 6.31,10.75 7,10.75L16,10.75ZM13.47,13.881L11.689,15.66C11.689,15.66 10.829,14.804 10.829,14.804C10.536,14.512 10.061,14.512 9.769,14.806C9.477,15.099 9.477,15.574 9.771,15.866L11.161,17.251C11.454,17.543 11.928,17.543 12.22,17.25L14.53,14.941C14.823,14.649 14.823,14.174 14.53,13.881C14.238,13.588 13.763,13.588 13.47,13.881ZM15.25,9.25L15.25,7C15.25,5.205 13.795,3.75 12,3.75C10.205,3.75 8.75,5.205 8.75,7L8.75,9.25L15.25,9.25Z" style="fill:rgb(50,50,50);"/>
</svg>
