<?xml version="1.0" encoding="UTF-8" standalone="no"?>
<!DOCTYPE svg PUBLIC "-//W3C//DTD SVG 1.1//EN" "http://www.w3.org/Graphics/SVG/1.1/DTD/svg11.dtd">
<svg width="100%" height="100%" viewBox="0 0 24 24" version="1.1" xmlns="http://www.w3.org/2000/svg" xmlns:xlink="http://www.w3.org/1999/xlink" xml:space="preserve" xmlns:serif="http://www.serif.com/" style="fill-rule:evenodd;clip-rule:evenodd;stroke-linejoin:round;stroke-miterlimit:2;">
    <path d="M12.75,13.12L12.75,9.38C12.75,8.966 12.414,8.63 12,8.63C11.586,8.63 11.25,8.966 11.25,9.38L11.25,13.12C11.25,13.534 11.586,13.87 12,13.87C12.414,13.87 12.75,13.534 12.75,13.12Z" style="fill:rgb(50,50,50);"/>
    <path d="M12.051,15.376L11.999,15.375L11.96,15.376C11.425,15.396 10.998,15.838 11,16.378C11.001,16.928 11.449,17.375 12,17.375C12.552,17.375 13,16.927 13,16.375C13,15.841 12.582,15.403 12.051,15.376ZM11.973,16.874C11.982,16.875 11.99,16.875 11.999,16.875L11.973,16.874Z" style="fill:rgb(50,50,50);"/>
    <path d="M14.68,3.767C13.495,1.692 10.505,1.692 9.32,3.767C9.32,3.767 1.661,17.171 1.661,17.171C0.484,19.229 1.97,21.79 4.341,21.79L19.659,21.79C22.029,21.79 23.515,19.229 22.339,17.171L14.68,3.767ZM13.378,4.511L21.037,17.915C21.641,18.973 20.877,20.29 19.659,20.29C19.659,20.29 4.341,20.29 4.341,20.29C3.122,20.29 2.358,18.973 2.963,17.915L10.622,4.511C11.231,3.444 12.769,3.444 13.378,4.511Z" style="fill:rgb(50,50,50);"/>
</svg>
