<?xml version="1.0" encoding="UTF-8" standalone="no"?>
<!DOCTYPE svg PUBLIC "-//W3C//DTD SVG 1.1//EN" "http://www.w3.org/Graphics/SVG/1.1/DTD/svg11.dtd">
<svg width="100%" height="100%" viewBox="0 0 24 24" version="1.1" xmlns="http://www.w3.org/2000/svg" xmlns:xlink="http://www.w3.org/1999/xlink" xml:space="preserve" xmlns:serif="http://www.serif.com/" style="fill-rule:evenodd;clip-rule:evenodd;stroke-linejoin:round;stroke-miterlimit:2;">
    <path d="M17.189,11.25L5,11.25C4.586,11.25 4.25,11.586 4.25,12C4.25,12.414 4.586,12.75 5,12.75L17.189,12.75L13.47,16.47C13.177,16.762 13.177,17.238 13.47,17.53C13.762,17.823 14.238,17.823 14.53,17.53L19.53,12.53C19.602,12.459 19.656,12.376 19.693,12.288L19.693,12.286C19.73,12.198 19.75,12.101 19.75,12C19.75,11.899 19.73,11.802 19.693,11.714L19.693,11.712C19.665,11.646 19.629,11.584 19.582,11.527L19.563,11.505L19.54,11.48L19.53,11.47C19.53,11.47 14.53,6.47 14.53,6.47C14.238,6.177 13.762,6.177 13.47,6.47C13.177,6.762 13.177,7.238 13.47,7.53L17.189,11.25Z" style="fill:rgb(50,50,50);"/>
</svg>
