<?xml version="1.0" encoding="UTF-8" standalone="no"?>
<!DOCTYPE svg PUBLIC "-//W3C//DTD SVG 1.1//EN" "http://www.w3.org/Graphics/SVG/1.1/DTD/svg11.dtd">
<svg width="100%" height="100%" viewBox="0 0 24 24" version="1.1" xmlns="http://www.w3.org/2000/svg" xmlns:xlink="http://www.w3.org/1999/xlink" xml:space="preserve" xmlns:serif="http://www.serif.com/" style="fill-rule:evenodd;clip-rule:evenodd;stroke-linejoin:round;stroke-miterlimit:2;">
    <path d="M18.786,9.847L20.47,11.53C20.762,11.823 21.238,11.823 21.53,11.53C21.823,11.238 21.823,10.762 21.53,10.47L19.847,8.786C20.415,8.003 20.75,7.041 20.75,6C20.75,3.378 18.622,1.25 16,1.25C13.378,1.25 11.25,3.378 11.25,6C11.25,8.622 13.378,10.75 16,10.75C17.041,10.75 18.003,10.415 18.786,9.847ZM16,2.75C17.794,2.75 19.25,4.206 19.25,6C19.25,7.794 17.794,9.25 16,9.25C14.206,9.25 12.75,7.794 12.75,6C12.75,4.206 14.206,2.75 16,2.75Z" style="fill:rgb(50,50,50);"/>
    <path d="M9,3.25L6,3.25C3.943,3.25 2.25,4.943 2.25,7L2.25,18C2.25,20.057 3.943,21.75 6,21.75L18,21.75C20.057,21.75 21.75,20.057 21.75,18L21.75,15C21.75,14.586 21.414,14.25 21,14.25C20.586,14.25 20.25,14.586 20.25,15L20.25,18C20.25,19.234 19.234,20.25 18,20.25C18,20.25 6,20.25 6,20.25C4.766,20.25 3.75,19.234 3.75,18C3.75,18 3.75,7 3.75,7C3.75,5.766 4.766,4.75 6,4.75C6,4.75 9,4.75 9,4.75C9.414,4.75 9.75,4.414 9.75,4C9.75,3.586 9.414,3.25 9,3.25Z" style="fill:rgb(50,50,50);"/>
    <path d="M7,9.75L9,9.75C9.414,9.75 9.75,9.414 9.75,9C9.75,8.586 9.414,8.25 9,8.25L7,8.25C6.586,8.25 6.25,8.586 6.25,9C6.25,9.414 6.586,9.75 7,9.75Z" style="fill:rgb(50,50,50);"/>
    <path d="M12,12.25L7,12.25C6.586,12.25 6.25,12.586 6.25,13C6.25,13.414 6.586,13.75 7,13.75L12,13.75C12.414,13.75 12.75,13.414 12.75,13C12.75,12.586 12.414,12.25 12,12.25Z" style="fill:rgb(50,50,50);"/>
    <path d="M17,12.25L15,12.25C14.586,12.25 14.25,12.586 14.25,13C14.25,13.414 14.586,13.75 15,13.75L17,13.75C17.414,13.75 17.75,13.414 17.75,13C17.75,12.586 17.414,12.25 17,12.25Z" style="fill:rgb(50,50,50);"/>
    <path d="M17,16.25L12,16.25C11.586,16.25 11.25,16.586 11.25,17C11.25,17.414 11.586,17.75 12,17.75L17,17.75C17.414,17.75 17.75,17.414 17.75,17C17.75,16.586 17.414,16.25 17,16.25Z" style="fill:rgb(50,50,50);"/>
    <path d="M9,16.25L7,16.25C6.586,16.25 6.25,16.586 6.25,17C6.25,17.414 6.586,17.75 7,17.75L9,17.75C9.414,17.75 9.75,17.414 9.75,17C9.75,16.586 9.414,16.25 9,16.25Z" style="fill:rgb(50,50,50);"/>
</svg>
