<?xml version="1.0" encoding="UTF-8" standalone="no"?>
<!DOCTYPE svg PUBLIC "-//W3C//DTD SVG 1.1//EN" "http://www.w3.org/Graphics/SVG/1.1/DTD/svg11.dtd">
<svg width="100%" height="100%" viewBox="0 0 24 24" version="1.1" xmlns="http://www.w3.org/2000/svg" xmlns:xlink="http://www.w3.org/1999/xlink" xml:space="preserve" xmlns:serif="http://www.serif.com/" style="fill-rule:evenodd;clip-rule:evenodd;stroke-linejoin:round;stroke-miterlimit:2;">
    <path d="M5.377,15.463L6.832,19.134C7.218,20.112 8.158,20.75 9.199,20.75C10.996,20.75 12.232,18.925 11.569,17.239L10.983,15.749L13.766,15.75L17.448,18.266C19.272,19.514 21.75,18.207 21.75,15.996L21.75,5.004C21.75,2.793 19.274,1.486 17.448,2.733L13.767,5.248C13.767,5.248 7.001,5.248 7.001,5.248C4.377,5.248 2.25,7.375 2.25,9.999L2.25,10.996C2.25,13.05 3.553,14.8 5.377,15.463ZM7.103,15.748L8.226,18.582C8.386,18.984 8.77,19.25 9.199,19.25C9.944,19.25 10.448,18.487 10.173,17.787L9.371,15.749L7.103,15.748ZM14.75,14.606L14.75,6.393L18.294,3.971C19.124,3.404 20.25,3.999 20.25,5.004C20.25,5.004 20.25,15.996 20.25,15.996C20.25,17.001 19.124,17.596 18.295,17.028L14.75,14.606ZM13.25,6.748L13.25,14.25L7,14.248C5.205,14.248 3.75,12.792 3.75,10.996C3.75,10.996 3.75,9.999 3.75,9.999C3.75,8.203 5.205,6.748 7.001,6.748L13.25,6.748Z" style="fill:rgb(50,50,50);"/>
</svg>
