<?xml version="1.0" encoding="UTF-8" standalone="no"?>
<!DOCTYPE svg PUBLIC "-//W3C//DTD SVG 1.1//EN" "http://www.w3.org/Graphics/SVG/1.1/DTD/svg11.dtd">
<svg width="100%" height="100%" viewBox="0 0 24 24" version="1.1" xmlns="http://www.w3.org/2000/svg" xmlns:xlink="http://www.w3.org/1999/xlink" xml:space="preserve" xmlns:serif="http://www.serif.com/" style="fill-rule:evenodd;clip-rule:evenodd;stroke-linejoin:round;stroke-miterlimit:2;">
    <path d="M11.25,13L11.25,13.25C11.25,13.267 11.251,13.285 11.252,13.302L11.252,13.307L11.253,13.314L11.254,13.327L11.256,13.344C11.269,13.462 11.307,13.558 11.358,13.638L11.368,13.653C11.501,13.862 11.735,14 12,14C12,14 12.75,13.931 12.75,13.244L12.75,13.007L12.75,13L12.75,13C12.75,12.486 13.111,12.236 13.429,12.023C13.43,12.022 13.43,12.022 13.43,12.022C14.112,11.563 14.75,10.937 14.75,9.833C14.75,8.314 13.519,7.083 12,7.083C10.481,7.083 9.25,8.314 9.25,9.833C9.25,10.247 9.586,10.583 10,10.583C10.414,10.583 10.75,10.247 10.75,9.833C10.75,9.142 11.309,8.583 12,8.583C12.691,8.583 13.25,9.142 13.25,9.833C13.25,10.33 12.899,10.571 12.592,10.778C11.898,11.244 11.25,11.879 11.25,13Z" style="fill:rgb(50,50,50);"/>
    <path d="M12.051,15.251L11.999,15.25L11.96,15.251C11.425,15.271 10.998,15.713 11,16.253C11.001,16.803 11.449,17.25 12,17.25C12.552,17.25 13,16.802 13,16.25C13,15.716 12.582,15.278 12.051,15.251Z" style="fill:rgb(50,50,50);"/>
</svg>
