<?xml version="1.0" encoding="UTF-8" standalone="no"?>
<!DOCTYPE svg PUBLIC "-//W3C//DTD SVG 1.1//EN" "http://www.w3.org/Graphics/SVG/1.1/DTD/svg11.dtd">
<svg width="100%" height="100%" viewBox="0 0 24 24" version="1.1" xmlns="http://www.w3.org/2000/svg" xmlns:xlink="http://www.w3.org/1999/xlink" xml:space="preserve" xmlns:serif="http://www.serif.com/" style="fill-rule:evenodd;clip-rule:evenodd;stroke-linejoin:round;stroke-miterlimit:2;">
    <g transform="matrix(1,0,0,1,0.30783,0.995801)">
        <path d="M10.946,14.25L10.461,14.25C10.047,14.25 9.711,14.586 9.711,15C9.711,15.414 10.047,15.75 10.461,15.75L12.923,15.75C13.337,15.75 13.673,15.414 13.673,15C13.673,14.586 13.337,14.25 12.923,14.25L12.446,14.25L12.446,10.468C12.446,10.054 12.111,9.718 11.696,9.718L10.47,9.718C10.057,9.718 9.72,10.054 9.72,10.468C9.72,10.882 10.057,11.218 10.47,11.218L10.946,11.218L10.946,14.25Z" style="fill:rgb(50,50,50);"/>
    </g>
    <g transform="matrix(2.63039,0,0,2.63039,-23.5283,-9.84332)">
        <circle cx="13.383" cy="6.883" r="0.383" style="fill:rgb(50,50,50);"/>
    </g>
</svg>
