<?xml version="1.0" encoding="UTF-8" standalone="no"?>
<!DOCTYPE svg PUBLIC "-//W3C//DTD SVG 1.1//EN" "http://www.w3.org/Graphics/SVG/1.1/DTD/svg11.dtd">
<svg width="100%" height="100%" viewBox="0 0 24 24" version="1.1" xmlns="http://www.w3.org/2000/svg" xmlns:xlink="http://www.w3.org/1999/xlink" xml:space="preserve" xmlns:serif="http://www.serif.com/" style="fill-rule:evenodd;clip-rule:evenodd;stroke-linejoin:round;stroke-miterlimit:2;">
    <path d="M12.278,2.597C12.103,2.682 11.898,2.683 11.724,2.597L10.273,1.888C9.239,1.384 7.993,1.789 7.454,2.805C7.455,2.804 6.698,4.23 6.698,4.23C6.606,4.402 6.44,4.523 6.249,4.556C6.249,4.556 4.659,4.835 4.659,4.835C3.527,5.033 2.755,6.095 2.917,7.233C2.917,7.232 3.142,8.83 3.142,8.83C3.142,8.83 3.142,8.83 3.142,8.831C3.17,9.023 3.106,9.218 2.971,9.358L1.849,10.518C1.049,11.345 1.05,12.656 1.849,13.482L2.971,14.641C3.106,14.781 3.17,14.976 3.142,15.168L2.916,16.767C2.756,17.906 3.526,18.966 4.658,19.165L6.248,19.444C6.44,19.478 6.606,19.598 6.698,19.77C6.698,19.77 7.454,21.196 7.454,21.196C7.993,22.213 9.241,22.617 10.273,22.113L11.723,21.404C11.898,21.318 12.103,21.318 12.278,21.404L13.728,22.113C14.762,22.617 16.008,22.212 16.547,21.196C16.546,21.197 17.303,19.771 17.303,19.771C17.395,19.599 17.561,19.479 17.753,19.445L19.343,19.166C20.475,18.967 21.245,17.907 21.085,16.768L20.859,15.169C20.831,14.977 20.895,14.782 21.03,14.642L22.152,13.482C22.952,12.655 22.951,11.344 22.152,10.518L21.03,9.359C20.895,9.219 20.831,9.024 20.859,8.832L21.085,7.233C21.245,6.094 20.475,5.034 19.343,4.835L17.753,4.556C17.561,4.522 17.395,4.402 17.303,4.23C17.303,4.23 16.546,2.804 16.546,2.804C16.008,1.788 14.76,1.384 13.728,1.888L12.278,2.597ZM12.936,3.945L14.386,3.236C14.692,3.086 15.062,3.206 15.221,3.507L15.979,4.934C16.287,5.514 16.845,5.92 17.493,6.034L19.083,6.313C19.419,6.372 19.647,6.686 19.599,7.023C19.599,7.023 19.373,8.621 19.373,8.621C19.281,9.272 19.495,9.929 19.952,10.401L21.074,11.562C21.311,11.806 21.31,12.195 21.074,12.44C21.074,12.44 19.952,13.6 19.952,13.6C19.495,14.072 19.281,14.729 19.373,15.381C19.373,15.38 19.599,16.978 19.599,16.978C19.647,17.315 19.419,17.629 19.083,17.688L17.493,17.967C16.845,18.081 16.287,18.487 15.979,19.067L15.221,20.494C15.062,20.794 14.692,20.915 14.386,20.765L12.936,20.056C12.345,19.768 11.656,19.768 11.065,20.056L9.615,20.765C9.309,20.915 8.939,20.795 8.78,20.494L8.022,19.066C7.714,18.486 7.156,18.08 6.508,17.966L4.918,17.687C4.582,17.628 4.354,17.314 4.402,16.977C4.402,16.977 4.628,15.379 4.628,15.379C4.72,14.728 4.506,14.071 4.049,13.599L2.927,12.438C2.69,12.194 2.691,11.805 2.927,11.56C2.927,11.56 4.049,10.4 4.049,10.4C4.506,9.928 4.72,9.271 4.628,8.619C4.628,8.62 4.403,7.022 4.403,7.022C4.403,7.022 4.403,7.022 4.403,7.021C4.355,6.685 4.583,6.371 4.918,6.313L6.509,6.034C7.156,5.919 7.714,5.514 8.022,4.934L8.78,3.507C8.939,3.207 9.309,3.086 9.615,3.236C9.615,3.236 11.065,3.945 11.065,3.945C11.654,4.233 12.345,4.234 12.936,3.945Z" style="fill:rgb(50,50,50);"/>
    <path d="M9.53,15.53L15.53,9.53C15.823,9.238 15.823,8.762 15.53,8.47C15.238,8.177 14.762,8.177 14.47,8.47L8.47,14.47C8.177,14.762 8.177,15.238 8.47,15.53C8.762,15.823 9.238,15.823 9.53,15.53Z" style="fill:rgb(50,50,50);"/>
    <path d="M9.301,8.251L9.249,8.25L9.21,8.251C8.675,8.271 8.248,8.713 8.25,9.253C8.251,9.803 8.699,10.25 9.25,10.25C9.802,10.25 10.25,9.802 10.25,9.25C10.25,8.716 9.832,8.278 9.301,8.251Z" style="fill:rgb(50,50,50);"/>
    <path d="M14.801,13.751L14.749,13.75L14.71,13.751C14.175,13.771 13.748,14.213 13.75,14.753C13.751,15.303 14.199,15.75 14.75,15.75C15.302,15.75 15.75,15.302 15.75,14.75C15.75,14.216 15.332,13.778 14.801,13.751Z" style="fill:rgb(50,50,50);"/>
</svg>
