<?xml version="1.0" encoding="UTF-8" standalone="no"?>
<!DOCTYPE svg PUBLIC "-//W3C//DTD SVG 1.1//EN" "http://www.w3.org/Graphics/SVG/1.1/DTD/svg11.dtd">
<svg width="100%" height="100%" viewBox="0 0 24 24" version="1.1" xmlns="http://www.w3.org/2000/svg" xmlns:xlink="http://www.w3.org/1999/xlink" xml:space="preserve" xmlns:serif="http://www.serif.com/" style="fill-rule:evenodd;clip-rule:evenodd;stroke-linejoin:round;stroke-miterlimit:2;">
    <path d="M11.25,3.505C9.324,3.674 7.444,4.496 5.97,5.97C4.496,7.444 3.674,9.324 3.505,11.25L2,11.25C1.586,11.25 1.25,11.586 1.25,12C1.25,12.414 1.586,12.75 2,12.75L3.505,12.75C3.674,14.676 4.496,16.556 5.97,18.03C7.444,19.504 9.324,20.326 11.25,20.495L11.25,22C11.25,22.414 11.586,22.75 12,22.75C12.414,22.75 12.75,22.414 12.75,22L12.75,20.495C14.676,20.326 16.556,19.504 18.03,18.03C19.504,16.556 20.326,14.676 20.495,12.75L22,12.75C22.414,12.75 22.75,12.414 22.75,12C22.75,11.586 22.414,11.25 22,11.25L20.495,11.25C20.326,9.324 19.504,7.444 18.03,5.97C16.556,4.496 14.676,3.674 12.75,3.505L12.75,2C12.75,1.586 12.414,1.25 12,1.25C11.586,1.25 11.25,1.586 11.25,2L11.25,3.505ZM12.75,5.012L12.75,6.444C12.75,6.858 12.414,7.194 12,7.194C11.586,7.194 11.25,6.858 11.25,6.444L11.25,5.012C9.709,5.176 8.212,5.849 7.031,7.031C5.849,8.212 5.176,9.709 5.012,11.25L6.444,11.25C6.858,11.25 7.194,11.586 7.194,12C7.194,12.414 6.858,12.75 6.444,12.75L5.012,12.75C5.176,14.291 5.849,15.788 7.031,16.969C8.212,18.151 9.709,18.823 11.25,18.988L11.25,17.556C11.25,17.142 11.586,16.806 12,16.806C12.414,16.806 12.75,17.142 12.75,17.556L12.75,18.988C14.291,18.823 15.788,18.151 16.969,16.969C18.151,15.788 18.823,14.291 18.988,12.75L17.556,12.75C17.142,12.75 16.806,12.414 16.806,12C16.806,11.586 17.142,11.25 17.556,11.25L18.988,11.25C18.823,9.709 18.151,8.212 16.969,7.031L16.905,6.967C15.734,5.825 14.263,5.173 12.75,5.012Z" style="fill:rgb(50,50,50);"/>
</svg>
