<?xml version="1.0" encoding="UTF-8" standalone="no"?>
<!DOCTYPE svg PUBLIC "-//W3C//DTD SVG 1.1//EN" "http://www.w3.org/Graphics/SVG/1.1/DTD/svg11.dtd">
<svg width="100%" height="100%" viewBox="0 0 24 24" version="1.1" xmlns="http://www.w3.org/2000/svg" xmlns:xlink="http://www.w3.org/1999/xlink" xml:space="preserve" xmlns:serif="http://www.serif.com/" style="fill-rule:evenodd;clip-rule:evenodd;stroke-linejoin:round;stroke-miterlimit:2;">
    <path d="M15.7,3.25C14.034,3.25 12.826,3.91 12,4.643C11.174,3.91 9.966,3.25 8.3,3.25C4.701,3.25 2.25,6.604 2.25,9.76C2.25,11.255 2.799,12.689 3.658,13.999C4.873,15.852 6.708,17.455 8.323,18.624C9.937,19.793 11.328,20.528 11.639,20.665C11.831,20.75 11.963,20.75 12,20.75C12.037,20.75 12.169,20.75 12.361,20.665C12.672,20.528 14.063,19.793 15.677,18.624C17.292,17.455 19.127,15.852 20.342,13.999C21.201,12.689 21.75,11.255 21.75,9.76C21.75,6.604 19.299,3.25 15.7,3.25ZM12,19.162C11.506,18.892 10.333,18.227 9.203,17.409C7.721,16.337 6.027,14.876 4.913,13.177C4.219,12.118 3.75,10.968 3.75,9.76C3.75,7.356 5.559,4.75 8.3,4.75C9.841,4.75 10.848,5.522 11.432,6.2C11.575,6.365 11.782,6.46 12,6.46C12.218,6.46 12.425,6.365 12.568,6.2C13.152,5.522 14.159,4.75 15.7,4.75C18.441,4.75 20.25,7.356 20.25,9.76C20.25,10.968 19.781,12.118 19.087,13.177C17.973,14.876 16.279,16.337 14.797,17.409C13.667,18.227 12.494,18.892 12,19.162Z" style="fill:rgb(50,50,50);"/>
</svg>
